<?xml version="1.0" standalone="no"?>
<!DOCTYPE svg PUBLIC "-//W3C//DTD SVG 20010904//EN"
 "http://www.w3.org/TR/2001/REC-SVG-20010904/DTD/svg10.dtd">
<svg version="1.0" xmlns="http://www.w3.org/2000/svg"
 width="1000.000000pt" height="1000.000000pt" viewBox="0 0 1000.000000 1000.000000"
 preserveAspectRatio="xMidYMid meet">

<g transform="translate(0.000000,1000.000000) scale(0.100000,-0.100000)"
fill="#000000" stroke="none">
<path d="M4775 9854 c-1243 -80 -2364 -589 -3215 -1460 -788 -807 -1254 -1821
-1372 -2984 -16 -162 -16 -688 0 -850 86 -855 350 -1602 805 -2285 743 -1112
1917 -1875 3228 -2094 314 -53 463 -65 814 -65 351 0 500 12 814 65 1760 294
3233 1557 3796 3254 176 530 250 987 250 1550 0 292 -9 427 -41 660 -246 1785
-1443 3280 -3129 3910 -376 140 -786 235 -1205 280 -138 15 -618 27 -745 19z
m649 -2006 c10 -16 15 -69 19 -179 l4 -156 -166 -7 c-91 -3 -214 -9 -272 -12
l-106 -6 -6 38 c-4 22 -7 98 -7 170 0 110 3 134 17 145 11 10 63 16 182 20
331 11 319 12 335 -13z m-1630 -374 c13 -13 16 -44 16 -185 l0 -169 -275 0
-275 0 0 173 c0 121 4 177 12 185 9 9 80 12 259 12 212 0 250 -2 263 -16z
m2354 -146 c10 -13 59 -335 51 -342 -7 -5 -532 -77 -536 -72 -2 2 -15 77 -28
167 -20 136 -22 166 -11 177 8 9 102 27 237 47 263 38 273 39 287 23z m-694
-30 c3 -7 11 -236 20 -508 16 -494 37 -1072 56 -1609 6 -156 9 -285 7 -287 -4
-5 -540 -24 -544 -20 -2 2 -13 255 -24 562 -11 308 -30 849 -43 1204 -13 355
-21 647 -19 650 5 5 248 15 436 18 79 2 109 -1 111 -10z m-723 -205 c10 -12
15 -59 17 -180 l3 -163 -370 0 -371 0 0 168 c0 117 4 172 12 180 9 9 101 12
354 12 305 0 343 -2 355 -17z m1504 -325 c3 -13 23 -151 45 -308 41 -293 107
-765 207 -1463 48 -343 54 -400 42 -412 -9 -9 -104 -27 -259 -49 -205 -30
-247 -33 -258 -22 -15 15 -11 -14 -192 1264 -72 508 -129 926 -126 929 3 3
121 23 263 43 142 21 261 38 265 39 4 1 10 -9 13 -21z m-2425 -1227 c0 -904
-2 -1011 -16 -1025 -13 -14 -51 -16 -263 -16 -179 0 -250 3 -259 12 -9 9 -12
250 -12 1025 l0 1013 275 0 275 0 0 -1009z m935 -94 c0 -760 -2 -917 -14 -930
-12 -15 -50 -17 -355 -17 -253 0 -345 3 -354 12 -9 9 -12 230 -12 932 l0 921
367 -2 368 -3 0 -913z m805 -836 c0 -53 -4 -82 -13 -89 -9 -8 -104 -12 -273
-14 l-259 -3 -3 83 c-2 45 -2 83 0 84 5 2 316 14 436 16 l112 2 0 -79z m-2215
-608 c-3 -16 -39 -268 -81 -562 -88 -613 -88 -587 0 -578 l54 5 12 -43 c7 -24
9 -48 6 -54 -11 -17 -105 -41 -160 -41 -61 0 -108 25 -127 69 -8 17 -18 31
-23 31 -5 0 -25 -15 -46 -34 -112 -101 -297 -99 -397 6 -109 114 -119 358 -21
551 42 84 118 161 197 200 60 29 74 32 161 32 80 0 102 -4 137 -23 l43 -22 4
22 c15 68 46 343 46 401 l0 67 100 0 100 0 -5 -27z m1255 5 c0 -18 -49 -387
-105 -793 -41 -298 -53 -403 -48 -437 l5 -38 -106 0 c-80 0 -104 3 -101 13 2
6 23 152 45 322 23 171 57 426 76 568 19 141 34 286 34 322 l0 65 100 0 c96 0
100 -1 100 -22z m329 -9 c18 -6 38 -24 46 -40 62 -120 -93 -262 -186 -170 -61
62 -23 184 67 211 39 11 37 11 73 -1z m1584 -30 c63 -67 7 -193 -92 -206 -108
-15 -157 120 -73 200 55 53 118 55 165 6z m-4013 -18 c0 -10 -3 -46 -6 -80
l-7 -61 -248 0 -249 0 -5 -22 c-5 -23 -45 -316 -45 -330 0 -4 86 -8 190 -8
l190 0 -6 -42 c-4 -24 -9 -59 -13 -78 l-7 -35 -187 -3 c-184 -2 -187 -3 -192
-25 -4 -19 -22 -155 -42 -319 l-6 -48 248 0 247 0 -7 -52 c-3 -29 -8 -65 -11
-80 l-6 -28 -352 0 -352 0 27 203 c15 111 33 238 39 282 6 44 27 197 46 340
20 143 36 293 35 333 l-1 72 360 0 c344 0 360 -1 360 -19z m3510 -154 c0 -1
-11 -47 -25 -102 -14 -55 -25 -106 -25 -112 0 -10 26 -13 96 -13 l97 0 -7 -37
c-3 -21 -6 -50 -6 -65 l0 -28 -100 0 c-55 0 -100 -1 -100 -2 0 -2 -12 -84 -25
-183 -14 -99 -28 -223 -32 -275 -5 -82 -3 -98 11 -113 19 -18 57 -21 123 -8
l42 8 8 -51 c6 -34 5 -53 -2 -57 -25 -16 -208 -41 -249 -35 -66 10 -108 43
-123 96 -11 38 -11 62 1 150 8 58 24 177 36 265 11 88 23 170 25 183 5 21 2
22 -55 22 l-60 0 6 43 c12 90 9 86 72 89 l57 3 16 110 c10 61 17 111 18 113 1
3 201 3 201 -1z m2163 -274 c-7 -49 -31 -227 -53 -398 -45 -343 -64 -433 -110
-526 -99 -201 -284 -288 -495 -234 -71 18 -165 62 -165 77 0 5 19 36 41 69
l42 59 30 -26 c51 -43 103 -64 158 -64 65 0 108 20 159 77 50 53 113 181 108
217 l-3 26 -35 -24 c-111 -75 -258 -73 -353 5 -21 17 -50 58 -69 97 -31 65
-33 71 -33 192 0 105 4 136 23 192 47 136 133 236 249 290 83 39 205 49 300
24 61 -15 65 -15 135 8 40 13 76 24 79 25 3 1 0 -38 -8 -86z m-965 50 c46 -22
72 -64 84 -136 9 -53 5 -99 -26 -327 -20 -146 -36 -289 -36 -317 l0 -53 -100
0 c-99 0 -100 0 -95 23 3 12 14 94 25 182 12 88 27 207 35 264 21 149 20 177
-10 206 -34 35 -86 33 -161 -5 -100 -51 -90 -23 -136 -364 l-42 -306 -91 0
-92 0 14 98 c16 117 38 274 59 437 15 112 15 240 0 275 -5 13 9 18 86 27 104
12 108 10 108 -49 0 -21 4 -38 9 -38 6 0 30 14 55 30 110 74 225 93 314 53z
m-1717 6 c29 -6 65 -17 80 -23 l28 -12 -42 -65 -42 -64 -45 22 c-104 53 -229
14 -230 -72 0 -47 24 -72 113 -116 150 -75 187 -120 187 -227 0 -126 -68 -226
-186 -273 -84 -33 -222 -33 -316 -1 -94 33 -97 39 -51 109 20 32 38 60 40 62
1 2 15 -6 32 -18 38 -27 105 -51 143 -51 105 0 178 124 114 193 -13 14 -61 44
-107 67 -134 67 -172 114 -172 211 0 164 126 266 330 268 40 1 95 -4 124 -10z
m-1838 -109 c-7 -54 -22 -168 -33 -252 -11 -84 -23 -183 -27 -220 -6 -65 -5
-68 26 -99 28 -27 37 -31 71 -26 80 11 142 84 184 217 27 86 70 379 64 440
l-4 40 103 0 c102 0 103 0 98 -22 -3 -13 -26 -162 -50 -332 -38 -264 -43 -312
-32 -335 13 -27 36 -32 89 -18 25 7 28 4 38 -34 6 -23 9 -47 6 -55 -7 -18
-100 -44 -160 -44 -65 0 -110 26 -127 74 -7 20 -16 36 -20 36 -3 0 -23 -15
-43 -34 -102 -97 -318 -111 -390 -26 -56 67 -56 99 -5 485 17 127 29 247 27
268 l-4 37 101 0 101 0 -13 -100z m1267 90 c0 -9 -12 -101 -70 -525 -17 -127
-27 -236 -24 -257 l7 -38 -102 0 -102 0 5 33 c3 17 19 136 36 262 16 127 37
283 46 348 9 64 14 133 12 152 l-4 35 98 0 c56 0 98 -4 98 -10z m1546 -22 c-3
-18 -15 -103 -26 -188 -11 -85 -27 -207 -36 -270 -32 -241 -35 -276 -29 -307
l6 -33 -101 0 c-55 0 -100 3 -100 8 0 9 23 187 50 382 42 312 49 370 43 405
l-6 35 103 0 102 0 -6 -32z"/>
<path d="M2840 3437 c-26 -14 -57 -43 -77 -71 -92 -133 -110 -393 -33 -479 24
-28 35 -32 77 -32 119 0 195 130 244 419 l21 118 -23 17 c-78 57 -138 66 -209
28z"/>
<path d="M7755 3441 c-42 -19 -94 -71 -119 -119 -8 -15 -24 -60 -36 -100 -18
-61 -22 -90 -18 -175 5 -115 20 -157 68 -182 87 -45 185 25 240 172 22 59 67
272 72 343 3 44 3 44 -42 62 -58 22 -115 22 -165 -1z"/>
</g>
</svg>
